<svg xmlns="http://www.w3.org/2000/svg" viewBox="0 0 869.53 170.21"><defs><style>.cls-1{fill:#2a62ae;}.cls-2{fill:#6ba943;}.cls-3{fill:#f58220;}.cls-4{fill:#6aafe0;}.cls-5{fill:#b27830;}</style></defs><title>Asset 10</title><g id="Layer_2" data-name="Layer 2"><g id="Layer_1-2" data-name="Layer 1"><path class="cls-1" d="M163,130.44h21.06v4.75H168.4v8h15.35v4.75H168.4v8.53h15.67v4.75H163Z"/><path class="cls-1" d="M203.05,158.78a9.39,9.39,0,0,1-7.19,2.95c-3.64,0-7.74-2.44-7.74-7.37,0-5.12,4.1-7.23,7.74-7.23a9.2,9.2,0,0,1,7.19,2.86v-3.32c0-2.58-2.12-4.15-5.21-4.15a9.11,9.11,0,0,0-6.59,2.81l-2-3.36a13.24,13.24,0,0,1,9.35-3.59c4.93,0,9.26,2.07,9.26,8.06v14.75h-4.84Zm0-6a6.52,6.52,0,0,0-5.3-2.3c-2.72,0-4.75,1.57-4.75,4s2,4,4.75,4a6.51,6.51,0,0,0,5.3-2.3Z"/><path class="cls-1" d="M214.16,138.92H219v3.27a9.51,9.51,0,0,1,7.24-3.78v4.79a7.09,7.09,0,0,0-1.52-.14A7.69,7.69,0,0,0,219,146v15.16h-4.84Z"/><path class="cls-1" d="M231.12,156V143.16h-3.69v-4.24h3.69v-6.08H236v6.08h4.52v4.24H236v11.66c0,1.52.74,2.63,2.12,2.63a3.13,3.13,0,0,0,2.17-.78l1.15,3.64a6.38,6.38,0,0,1-4.56,1.43C233.1,161.73,231.12,159.7,231.12,156Z"/><path class="cls-1" d="M259.92,147.17c0-3.46-1.8-4.52-4.52-4.52a7.48,7.48,0,0,0-5.71,3v15.53h-4.84V130.44h4.84V142a10.64,10.64,0,0,1,7.88-3.59c4.79,0,7.19,2.49,7.19,7.05v15.76h-4.84Z"/><path class="cls-1" d="M283,130.44h5.39v30.74H283Z"/><path class="cls-1" d="M322.08,146.66c0-2.4-1.06-4-3.64-4a6.75,6.75,0,0,0-5.16,2.95v15.58h-4.84V146.66c0-2.4-1.06-4-3.69-4a6.74,6.74,0,0,0-5.12,3v15.53H294.8V138.92h4.84v3a9.61,9.61,0,0,1,7.24-3.59c3.32,0,5.35,1.66,6.08,4.1a9.44,9.44,0,0,1,7.56-4.1c4.1,0,6.41,2.21,6.41,6.73v16.08h-4.84Z"/><path class="cls-1" d="M346.77,158.78a9.39,9.39,0,0,1-7.19,2.95c-3.64,0-7.74-2.44-7.74-7.37,0-5.12,4.1-7.23,7.74-7.23a9.2,9.2,0,0,1,7.19,2.86v-3.32c0-2.58-2.12-4.15-5.21-4.15a9.11,9.11,0,0,0-6.59,2.81L333,142a13.24,13.24,0,0,1,9.35-3.59c4.93,0,9.26,2.07,9.26,8.06v14.75h-4.84Zm0-6a6.52,6.52,0,0,0-5.3-2.3c-2.72,0-4.75,1.57-4.75,4s2,4,4.75,4a6.51,6.51,0,0,0,5.3-2.3Z"/><path class="cls-1" d="M359.86,163.39c1.8,2.07,4.1,2.86,7,2.86,3.18,0,6.59-1.47,6.59-6v-2.67a9,9,0,0,1-7.14,3.69c-5.67,0-9.86-4.1-9.86-11.43s4.15-11.43,9.86-11.43A8.86,8.86,0,0,1,373.5,142v-3.09h4.84V160c0,8-5.94,10.18-11.43,10.18-3.78,0-6.59-.83-9.31-3.32Zm13.64-17.74a7.22,7.22,0,0,0-5.71-3c-3.83,0-6.27,2.86-6.27,7.14s2.44,7.14,6.27,7.14a7.22,7.22,0,0,0,5.71-3Z"/><path class="cls-1" d="M394.51,138.37c6.68,0,11,5.12,11,12.12v1.15H388.29a6.74,6.74,0,0,0,7.1,6.13,9.42,9.42,0,0,0,6.31-2.44l2.21,3.18a13,13,0,0,1-9,3.23c-6.68,0-11.66-4.65-11.66-11.7C383.22,143.57,387.92,138.37,394.51,138.37Zm-6.27,9.86h12.53a6,6,0,0,0-6.27-5.9A6.14,6.14,0,0,0,388.25,148.23Z"/><path class="cls-1" d="M410.27,138.92h4.84v3.27a9.51,9.51,0,0,1,7.24-3.78v4.79a7.09,7.09,0,0,0-1.52-.14,7.69,7.69,0,0,0-5.71,2.95v15.16h-4.84Z"/><path class="cls-1" d="M427.87,165.92a3,3,0,0,0,3.18-1.94l1.11-2.53L423,138.92h5.16l6.5,16.68,6.5-16.68h5.21l-10.74,26.27c-1.52,3.78-4.19,5-7.65,5a13.67,13.67,0,0,1-2.72-.32l.74-4.33A5.05,5.05,0,0,0,427.87,165.92Z"/><path class="cls-1" d="M462.43,143.16h-3.69v-4.24h3.69v-1.24c0-5,2.95-7.7,7.05-7.7a8,8,0,0,1,3.87.88l-1.06,3.55a3.88,3.88,0,0,0-1.94-.46c-1.89,0-3.09,1.24-3.09,3.73v1.24h4.52v4.24h-4.52v18h-4.84Z"/><path class="cls-1" d="M474.09,150c0-6.36,4.38-11.66,11.43-11.66S497,143.67,497,150s-4.33,11.7-11.47,11.7S474.09,156.43,474.09,150ZM492,150c0-3.92-2.3-7.37-6.45-7.37s-6.41,3.46-6.41,7.37,2.3,7.42,6.41,7.42S492,154,492,150Z"/><path class="cls-1" d="M501.88,138.92h4.84v3.27a9.51,9.51,0,0,1,7.24-3.78v4.79a7.09,7.09,0,0,0-1.52-.14,7.69,7.69,0,0,0-5.71,2.95v15.16h-4.84Z"/><path class="cls-1" d="M529.84,130.44h5.39v30.74h-5.39Z"/><path class="cls-1" d="M568.92,146.66c0-2.4-1.06-4-3.64-4a6.75,6.75,0,0,0-5.16,2.95v15.58h-4.84V146.66c0-2.4-1.06-4-3.69-4a6.74,6.74,0,0,0-5.12,3v15.53h-4.84V138.92h4.84v3a9.61,9.61,0,0,1,7.24-3.59c3.32,0,5.35,1.66,6.08,4.1a9.44,9.44,0,0,1,7.56-4.1c4.1,0,6.41,2.21,6.41,6.73v16.08h-4.84Z"/><path class="cls-1" d="M580,169.66V138.92h4.84v3a8.88,8.88,0,0,1,7.14-3.59c5.76,0,9.86,4.33,9.86,11.66s-4.1,11.7-9.86,11.7a8.74,8.74,0,0,1-7.14-3.64v11.57Zm10.55-27a7.22,7.22,0,0,0-5.71,3v8.8a7.36,7.36,0,0,0,5.71,3c3.82,0,6.27-3.09,6.27-7.42S594.4,142.65,590.58,142.65Z"/><path class="cls-1" d="M620.34,158.78a9.39,9.39,0,0,1-7.19,2.95c-3.64,0-7.74-2.44-7.74-7.37,0-5.12,4.1-7.23,7.74-7.23a9.2,9.2,0,0,1,7.19,2.86v-3.32c0-2.58-2.12-4.15-5.21-4.15a9.11,9.11,0,0,0-6.59,2.81l-2-3.36a13.24,13.24,0,0,1,9.35-3.59c4.93,0,9.26,2.07,9.26,8.06v14.75h-4.84Zm0-6a6.52,6.52,0,0,0-5.3-2.3c-2.72,0-4.75,1.57-4.75,4s2,4,4.75,4a6.51,6.51,0,0,0,5.3-2.3Z"/><path class="cls-1" d="M641.59,138.37c4.33,0,7,1.84,8.53,4l-3.18,2.95a5.94,5.94,0,0,0-5.12-2.63c-4.06,0-6.73,3-6.73,7.37s2.67,7.42,6.73,7.42a6.05,6.05,0,0,0,5.12-2.63l3.18,2.95c-1.57,2.12-4.19,4-8.53,4-6.77,0-11.52-4.93-11.52-11.7S634.81,138.37,641.59,138.37Z"/><path class="cls-1" d="M655.32,156V143.16h-3.69v-4.24h3.69v-6.08h4.84v6.08h4.52v4.24h-4.52v11.66c0,1.52.74,2.63,2.12,2.63a3.13,3.13,0,0,0,2.17-.78l1.15,3.64a6.38,6.38,0,0,1-4.56,1.43C657.3,161.73,655.32,159.7,655.32,156Z"/><path d="M149.33,110.14h14V24h-14V22.19h23.94c1,0,2,0,3-.06s2-.1,3-.19,2,0,3-.06,2-.06,3-.06a92.82,92.82,0,0,1,13.1.82A21.89,21.89,0,0,1,209,27.36,19.42,19.42,0,0,1,215.29,35a20.63,20.63,0,0,1,1.83,8.06,22.26,22.26,0,0,1-.69,4.85,16.36,16.36,0,0,1-3,6,22.59,22.59,0,0,1-6.74,5.67,30.45,30.45,0,0,1-11.72,3.46v.25q2,.25,5.48.95a32.43,32.43,0,0,1,7.06,2.33A26.19,26.19,0,0,1,214.09,71a14.74,14.74,0,0,1,4.28,7,30.38,30.38,0,0,1,1.07,5.73q.31,3.21.5,6.62t.38,6.55a32,32,0,0,0,.69,5.29,19.42,19.42,0,0,0,2.39,5.92,5.75,5.75,0,0,0,5.29,2.65,10.06,10.06,0,0,0,3.4-.63,8.42,8.42,0,0,0,3.15-2l1.13,1.39q-.63.5-1.45,1.07a10.67,10.67,0,0,1-2.08,1.07,15.6,15.6,0,0,1-3.09.82,27.22,27.22,0,0,1-4.47.31,24,24,0,0,1-8.38-1.26,12.42,12.42,0,0,1-5.35-3.72,15.65,15.65,0,0,1-3-6,48,48,0,0,1-1.32-8.38l-.88-11.47q-.51-6.3-2.52-9.83a13.92,13.92,0,0,0-4.72-5.17,13.62,13.62,0,0,0-5.61-2,47.79,47.79,0,0,0-5-.32h-12.6v45.49h14v1.76H149.33Zm26.59-47.25H187.5a22,22,0,0,0,6.43-.88,11.19,11.19,0,0,0,5-3.09,14.74,14.74,0,0,0,3.21-6,34,34,0,0,0,1.13-9.58,27.14,27.14,0,0,0-1.7-10.52,14.23,14.23,0,0,0-4.41-6,14.55,14.55,0,0,0-6-2.65,35.63,35.63,0,0,0-6.62-.63q-2.27,0-4.6.06a32.51,32.51,0,0,0-4,.31Z"/><path d="M291.7,110.52a17.31,17.31,0,0,1-3.91,2.21,14.45,14.45,0,0,1-5.54.94q-6,0-8.76-2.58a13.7,13.7,0,0,1-3.72-7.25h-.25q-.5,1.14-1.39,2.84a11.23,11.23,0,0,1-2.71,3.28,15,15,0,0,1-4.85,2.65,23.4,23.4,0,0,1-7.69,1.07,24.36,24.36,0,0,1-8.44-1.2,13.77,13.77,0,0,1-4.91-3,8.56,8.56,0,0,1-2.33-4,16.46,16.46,0,0,1-.57-4.09,12.54,12.54,0,0,1,1.76-7.06,13.07,13.07,0,0,1,4.6-4.22,30.56,30.56,0,0,1,6.3-2.58q3.46-1,7-2.14,4.16-1.39,6.87-2.39a12.16,12.16,0,0,0,4.22-2.46,7.54,7.54,0,0,0,2.08-3.65,25.08,25.08,0,0,0,.57-6,35,35,0,0,0-.38-5.42,11.53,11.53,0,0,0-1.38-4.1,6.45,6.45,0,0,0-2.9-2.58,12.06,12.06,0,0,0-5-.88,14.47,14.47,0,0,0-6.87,1.45,5,5,0,0,0-2.71,4.72,23.52,23.52,0,0,0,.38,4.22,19.19,19.19,0,0,1,.38,3.09,3.92,3.92,0,0,1-1.26,3,5.11,5.11,0,0,1-3.65,1.2q-4.16,0-5.17-1.51a6.9,6.9,0,0,1-1-3.91,11.67,11.67,0,0,1,1.26-5.29,13.31,13.31,0,0,1,3.72-4.47,18.49,18.49,0,0,1,6.17-3.09,29.08,29.08,0,0,1,8.5-1.13,28.16,28.16,0,0,1,9.7,1.45,16.79,16.79,0,0,1,6.3,3.91,14.19,14.19,0,0,1,3.4,5.54,20.79,20.79,0,0,1,1,6.49V105q0,3.66,1.13,4.91a4.18,4.18,0,0,0,3.28,1.26,9.16,9.16,0,0,0,2.9-.5,10.56,10.56,0,0,0,2.9-1.51ZM269.65,81h-.25q-.25,1.64-4.16,3.28l-9.45,3.78a13.79,13.79,0,0,0-6.17,4.6,12.24,12.24,0,0,0-2.14,7.37,21.18,21.18,0,0,0,.38,3.91,10,10,0,0,0,1.38,3.59,7.68,7.68,0,0,0,2.84,2.58,9.7,9.7,0,0,0,4.72,1,11.72,11.72,0,0,0,6.74-1.76,11.54,11.54,0,0,0,3.9-4.41,18.66,18.66,0,0,0,1.77-5.73,40.09,40.09,0,0,0,.44-5.61Z"/><path d="M322.95,21.06h20.54v89.08h9.7v1.76H332.9v-11h-.25a35,35,0,0,1-1.51,3.65,15.48,15.48,0,0,1-3,4.16,17.39,17.39,0,0,1-4.91,3.47,16.42,16.42,0,0,1-7.24,1.45,24,24,0,0,1-10.52-2.39,29.28,29.28,0,0,1-8.76-6.43,31,31,0,0,1-6-9.26,28.57,28.57,0,0,1-.06-21.86,29,29,0,0,1,14.24-15.18,23,23,0,0,1,10.21-2.33q6.93,0,11.21,3.4a18.43,18.43,0,0,1,6,8.32h.25V22.82h-9.7Zm-21.8,62q0,6.55.38,11.91a30.48,30.48,0,0,0,1.89,9.14,12.15,12.15,0,0,0,4.54,5.79,17.35,17.35,0,0,0,16.7-.25,15.3,15.3,0,0,0,5-5.86,26.59,26.59,0,0,0,2.39-8,60.59,60.59,0,0,0,.63-8.57q0-4.91-.19-8.51a51.47,51.47,0,0,0-.69-6.36,21.68,21.68,0,0,0-1.39-4.79,21.06,21.06,0,0,0-2.14-3.78,14.91,14.91,0,0,0-4.91-4.16A16,16,0,0,0,315.64,58a13.53,13.53,0,0,0-7.24,1.76,11.78,11.78,0,0,0-4.41,5,26.44,26.44,0,0,0-2.21,7.88A76.89,76.89,0,0,0,301.15,83Z"/><path d="M355.2,110.14h9.7V59.61h-9.7V57.85h20.54v52.29h9.7v1.76H355.2Zm8.19-81.65a6.68,6.68,0,1,1,11.4,4.73,6.68,6.68,0,0,1-11.4-4.73Z"/><path d="M441.64,110.52a17.31,17.31,0,0,1-3.91,2.21,14.45,14.45,0,0,1-5.54.94q-6,0-8.76-2.58a13.7,13.7,0,0,1-3.72-7.25h-.25q-.5,1.14-1.39,2.84a11.23,11.23,0,0,1-2.71,3.28,15,15,0,0,1-4.85,2.65,23.4,23.4,0,0,1-7.69,1.07,24.36,24.36,0,0,1-8.44-1.2,13.77,13.77,0,0,1-4.91-3,8.56,8.56,0,0,1-2.33-4,16.46,16.46,0,0,1-.57-4.09,12.54,12.54,0,0,1,1.76-7.06,13.07,13.07,0,0,1,4.6-4.22,30.56,30.56,0,0,1,6.3-2.58q3.46-1,7-2.14,4.16-1.39,6.87-2.39a12.16,12.16,0,0,0,4.22-2.46,7.54,7.54,0,0,0,2.08-3.65,25.08,25.08,0,0,0,.57-6,35,35,0,0,0-.38-5.42,11.53,11.53,0,0,0-1.38-4.1,6.45,6.45,0,0,0-2.9-2.58,12.06,12.06,0,0,0-5-.88,14.47,14.47,0,0,0-6.87,1.45,5,5,0,0,0-2.71,4.72,23.52,23.52,0,0,0,.38,4.22,19.19,19.19,0,0,1,.38,3.09,3.92,3.92,0,0,1-1.26,3,5.11,5.11,0,0,1-3.65,1.2q-4.16,0-5.17-1.51a6.9,6.9,0,0,1-1-3.91,11.67,11.67,0,0,1,1.26-5.29,13.31,13.31,0,0,1,3.72-4.47,18.49,18.49,0,0,1,6.17-3.09,29.08,29.08,0,0,1,8.5-1.13,28.16,28.16,0,0,1,9.7,1.45,16.79,16.79,0,0,1,6.3,3.91,14.19,14.19,0,0,1,3.4,5.54,20.79,20.79,0,0,1,1,6.49V105q0,3.66,1.13,4.91a4.18,4.18,0,0,0,3.28,1.26,9.16,9.16,0,0,0,2.9-.5,10.56,10.56,0,0,0,2.9-1.51ZM419.59,81h-.25q-.25,1.64-4.16,3.28l-9.45,3.78a13.79,13.79,0,0,0-6.17,4.6,12.24,12.24,0,0,0-2.14,7.37,21.18,21.18,0,0,0,.38,3.91,10,10,0,0,0,1.38,3.59,7.68,7.68,0,0,0,2.84,2.58,9.7,9.7,0,0,0,4.72,1,11.72,11.72,0,0,0,6.74-1.76,11.54,11.54,0,0,0,3.9-4.41,18.66,18.66,0,0,0,1.77-5.73,40.09,40.09,0,0,0,.44-5.61Z"/><path d="M440.12,110.14h9.7V59.61h-9.7V57.85h20.29V71.33h.25q.76-1.63,2.2-4.16a21.9,21.9,0,0,1,4-4.91,21.57,21.57,0,0,1,15.5-5.8q8.31,0,13.54,4t5.23,12.85v36.79h9.7v1.76H480.57v-1.76h9.7V69.44a13.2,13.2,0,0,0-2.33-8.06q-2.33-3.15-7.24-3.15A17.48,17.48,0,0,0,473,60a20.21,20.21,0,0,0-6.43,4.91,23.27,23.27,0,0,0-4.35,7.43,26.82,26.82,0,0,0-1.57,9.32v28.48h9.7v1.76H440.12Z"/><path d="M508.54,57.85h9.7V41.59q1,.38,1.89.63a12.33,12.33,0,0,0,3,.25,10.76,10.76,0,0,0,3.28-.44,8.19,8.19,0,0,0,2.65-1.45V57.85H547v1.76H529.08v41.2a19.52,19.52,0,0,0,.69,5.73,8.63,8.63,0,0,0,1.83,3.4,5.45,5.45,0,0,0,2.46,1.58,9.38,9.38,0,0,0,2.58.38,8.86,8.86,0,0,0,7.12-3.21,15.57,15.57,0,0,0,3.46-7.37l1.76.63a29.34,29.34,0,0,1-1.13,3.65,12.74,12.74,0,0,1-2.33,3.84,12.28,12.28,0,0,1-4.1,3,14.68,14.68,0,0,1-6.3,1.2q-9.45,0-13.17-3.65t-3.72-10.33V59.61h-9.7Z"/><path d="M554.15,106.61a6.67,6.67,0,1,1,2,4.72A6.43,6.43,0,0,1,554.15,106.61Z"/><path d="M577.09,110.14h14V24h-14V22.19h72.07V44h-1.38a63.57,63.57,0,0,0-3.53-8.63,23.83,23.83,0,0,0-4.54-6.3,16.68,16.68,0,0,0-6.3-3.84A27.25,27.25,0,0,0,624.59,24H603.67V62.89h8.19a28.36,28.36,0,0,0,7.06-.76,10.75,10.75,0,0,0,5-2.84,16.82,16.82,0,0,0,3.53-5.67,69.85,69.85,0,0,0,2.84-9.26h1.38V83.55h-1.38q-.88-3.65-1.83-7.06a21.93,21.93,0,0,0-2.65-6,12.52,12.52,0,0,0-4.54-4.22,15.1,15.1,0,0,0-7.37-1.58H603.67v45.49h23.81a20.9,20.9,0,0,0,11.53-3,26.84,26.84,0,0,0,7.5-7.06,30.57,30.57,0,0,0,4.28-8.5,44.67,44.67,0,0,0,1.76-7.31h1.39V111.9H577.09Z"/><path d="M717.19,110.52a17.29,17.29,0,0,1-3.9,2.21,14.46,14.46,0,0,1-5.54.94q-6,0-8.76-2.58a13.69,13.69,0,0,1-3.72-7.25H695q-.5,1.14-1.38,2.84a11.26,11.26,0,0,1-2.71,3.28,15,15,0,0,1-4.85,2.65,23.39,23.39,0,0,1-7.69,1.07,24.37,24.37,0,0,1-8.44-1.2,13.76,13.76,0,0,1-4.91-3,8.59,8.59,0,0,1-2.33-4,16.54,16.54,0,0,1-.57-4.09,12.53,12.53,0,0,1,1.76-7.06,13.07,13.07,0,0,1,4.6-4.22,30.54,30.54,0,0,1,6.3-2.58q3.47-1,7-2.14,4.16-1.39,6.87-2.39a12.16,12.16,0,0,0,4.22-2.46A7.52,7.52,0,0,0,695,76.94a25,25,0,0,0,.57-6,35,35,0,0,0-.38-5.42,11.5,11.5,0,0,0-1.39-4.1,6.43,6.43,0,0,0-2.9-2.58,12.05,12.05,0,0,0-5-.88A14.48,14.48,0,0,0,679,59.42a5,5,0,0,0-2.71,4.72,23.53,23.53,0,0,0,.38,4.22,19.14,19.14,0,0,1,.38,3.09,3.92,3.92,0,0,1-1.26,3,5.1,5.1,0,0,1-3.65,1.2q-4.16,0-5.17-1.51a6.9,6.9,0,0,1-1-3.91,11.69,11.69,0,0,1,1.26-5.29,13.35,13.35,0,0,1,3.72-4.47,18.51,18.51,0,0,1,6.17-3.09,29.09,29.09,0,0,1,8.51-1.13,28.14,28.14,0,0,1,9.7,1.45,16.79,16.79,0,0,1,6.3,3.91,14.23,14.23,0,0,1,3.4,5.54,20.79,20.79,0,0,1,1,6.49V105q0,3.66,1.13,4.91a4.18,4.18,0,0,0,3.28,1.26,9.16,9.16,0,0,0,2.9-.5,10.52,10.52,0,0,0,2.9-1.51ZM695.15,81h-.25q-.25,1.64-4.16,3.28l-9.45,3.78a13.8,13.8,0,0,0-6.18,4.6,12.25,12.25,0,0,0-2.14,7.37,21.17,21.17,0,0,0,.38,3.91,10,10,0,0,0,1.39,3.59,7.69,7.69,0,0,0,2.83,2.58,9.71,9.71,0,0,0,4.73,1,11.72,11.72,0,0,0,6.74-1.76,11.56,11.56,0,0,0,3.91-4.41,18.6,18.6,0,0,0,1.76-5.73,40.11,40.11,0,0,0,.44-5.61Z"/><path d="M715.93,110.14h9.7V59.61h-9.7V57.85h20.29V70.57h.25a25.49,25.49,0,0,1,1.64-4.28,18.72,18.72,0,0,1,3.15-4.6A18,18,0,0,1,746.11,58,14.42,14.42,0,0,1,753,56.46a12.4,12.4,0,0,1,5,.95,10.93,10.93,0,0,1,3.53,2.39,8.82,8.82,0,0,1,2,3.34,11.89,11.89,0,0,1,.63,3.78q0,4.16-1.89,5.54a7.25,7.25,0,0,1-4.41,1.39q-5.55,0-5.54-3.53a5.41,5.41,0,0,1,.25-1.83q.25-.69.57-1.39a11.69,11.69,0,0,0,.57-1.57A9.68,9.68,0,0,0,754,63q0-4-4.41-4a7.81,7.81,0,0,0-4.28,1.51,15.79,15.79,0,0,0-4.22,4.41,27.71,27.71,0,0,0-3.28,7,30.55,30.55,0,0,0-1.32,9.39v28.85h11v1.76h-31.5Z"/><path d="M760.92,57.85h9.7V41.59q1,.38,1.89.63a12.33,12.33,0,0,0,3,.25,10.76,10.76,0,0,0,3.28-.44,8.19,8.19,0,0,0,2.65-1.45V57.85h17.89v1.76H781.45v41.2a19.52,19.52,0,0,0,.69,5.73,8.63,8.63,0,0,0,1.83,3.4,5.45,5.45,0,0,0,2.46,1.58,9.38,9.38,0,0,0,2.58.38,8.86,8.86,0,0,0,7.12-3.21,15.57,15.57,0,0,0,3.46-7.37l1.76.63a29.34,29.34,0,0,1-1.13,3.65,12.74,12.74,0,0,1-2.33,3.84,12.28,12.28,0,0,1-4.1,3,14.68,14.68,0,0,1-6.3,1.2q-9.45,0-13.17-3.65t-3.72-10.33V59.61h-9.7Z"/><path d="M798.84,110.14h9.7V22.82h-9.7V21.06h20.54V70.57h.25a26.07,26.07,0,0,1,2.14-4.09,19.9,19.9,0,0,1,4.1-4.66,24.19,24.19,0,0,1,6.3-3.78,22.72,22.72,0,0,1,8.88-1.57q8.31,0,13.54,4t5.23,12.85v36.79h9.7v1.76H839.29v-1.76H849V69.44a13.2,13.2,0,0,0-2.33-8.06q-2.33-3.15-7.24-3.15A17.48,17.48,0,0,0,831.73,60a20.21,20.21,0,0,0-6.43,4.91A23.27,23.27,0,0,0,821,72.34a26.82,26.82,0,0,0-1.57,9.32v28.48h9.7v1.76H798.84Z"/><ellipse class="cls-2" cx="35.75" cy="104.42" rx="19.96" ry="20.32"/><ellipse class="cls-2" cx="123.26" cy="74.41" rx="10.88" ry="11.08"/><ellipse class="cls-2" cx="72.96" cy="41.22" rx="5.34" ry="5.44"/><ellipse class="cls-2" cx="7.55" cy="50.16" rx="5.34" ry="5.44"/><ellipse class="cls-2" cx="64.08" cy="5.44" rx="5.34" ry="5.44"/><ellipse class="cls-2" cx="123.55" cy="92.72" rx="5.34" ry="5.44"/><ellipse class="cls-2" cx="42.46" cy="62.13" rx="5.34" ry="5.44"/><path class="cls-3" d="M48.94,27.79A20.48,20.48,0,0,1,39.85,55a19.8,19.8,0,0,1-26.72-9.25,20.48,20.48,0,0,1,9.09-27.2A19.8,19.8,0,0,1,48.94,27.79Z"/><ellipse class="cls-3" cx="96.24" cy="119.03" rx="7.45" ry="7.59"/><ellipse class="cls-3" cx="69.33" cy="127.41" rx="7.45" ry="7.59"/><ellipse class="cls-3" cx="108.4" cy="60.74" rx="7.45" ry="7.59"/><ellipse class="cls-3" cx="100.61" cy="23.46" rx="5.34" ry="5.44"/><ellipse class="cls-3" cx="38.54" cy="77.51" rx="5.34" ry="5.44"/><ellipse class="cls-3" cx="90.31" cy="38.38" rx="10.88" ry="11.08"/><ellipse class="cls-4" cx="92.47" cy="105.4" rx="5.34" ry="5.44"/><ellipse class="cls-4" cx="59.91" cy="116.43" rx="5.34" ry="5.44"/><ellipse class="cls-4" cx="113.45" cy="26.6" rx="5.34" ry="5.44"/><ellipse class="cls-4" cx="5.34" cy="66.58" rx="5.34" ry="5.44"/><ellipse class="cls-4" cx="53.34" cy="23.65" rx="5.34" ry="5.44"/><ellipse class="cls-4" cx="50.75" cy="9.83" rx="7.45" ry="7.59"/><ellipse class="cls-4" cx="68.84" cy="101.66" rx="10.88" ry="11.08"/><ellipse class="cls-4" cx="110.22" cy="105.65" rx="10.88" ry="11.08"/><ellipse class="cls-5" cx="13.83" cy="81.6" rx="10.88" ry="11.08"/><ellipse class="cls-5" cx="47.41" cy="127.66" rx="5.34" ry="5.44"/><ellipse class="cls-5" cx="68" cy="28.2" rx="7.45" ry="7.59"/><ellipse class="cls-5" cx="59.18" cy="43.37" rx="7.45" ry="7.59"/><ellipse class="cls-5" cx="128.85" cy="57.69" rx="5.34" ry="5.44"/><ellipse class="cls-5" cx="79.62" cy="11.83" rx="10.88" ry="11.08"/><ellipse class="cls-1" cx="72.92" cy="68.52" rx="19.96" ry="20.32"/><ellipse class="cls-1" cx="84.08" cy="127.46" rx="5.34" ry="5.44"/><ellipse class="cls-1" cx="106.44" cy="85.69" rx="7.45" ry="7.59"/><ellipse class="cls-1" cx="90.51" cy="90.88" rx="7.45" ry="7.59"/><ellipse class="cls-1" cx="29.57" cy="67.72" rx="7.45" ry="7.59"/><ellipse class="cls-1" cx="97.08" cy="12.77" rx="5.34" ry="5.44"/><ellipse class="cls-1" cx="118.06" cy="43.37" rx="10.88" ry="11.08"/></g></g></svg>